<?xml version="1.0" standalone="no"?>
<!DOCTYPE svg PUBLIC "-//W3C//DTD SVG 20010904//EN"
 "http://www.w3.org/TR/2001/REC-SVG-20010904/DTD/svg10.dtd">
<svg version="1.0" xmlns="http://www.w3.org/2000/svg"
 width="512.000000pt" height="512.000000pt" viewBox="0 0 512.000000 512.000000"
 preserveAspectRatio="xMidYMid meet">

<g transform="translate(0.000000,512.000000) scale(0.100000,-0.100000)"
fill="#000000" stroke="none">
<path d="M1624 4729 c-461 -29 -786 -191 -1008 -502 -92 -129 -168 -323 -201
-516 -28 -157 -35 -395 -35 -1151 0 -756 7 -994 35 -1151 95 -546 448 -899
995 -995 155 -27 398 -34 1150 -34 945 0 1095 9 1325 75 441 128 736 471 821
955 27 155 34 398 34 1150 0 752 -7 995 -34 1150 -50 285 -169 517 -355 692
-88 84 -170 139 -285 194 -169 79 -337 118 -595 134 -179 11 -1666 11 -1847
-1z m1771 -389 c362 -20 531 -77 695 -236 168 -163 230 -340 250 -714 13 -252
13 -1408 0 -1660 -20 -367 -76 -535 -236 -700 -163 -168 -340 -230 -714 -250
-252 -13 -1408 -13 -1660 0 -366 20 -532 75 -699 235 -167 161 -230 339 -251
710 -13 246 -13 1424 0 1670 21 374 83 549 255 713 157 151 335 213 662 231
221 12 1479 12 1698 1z"/>
<path d="M3665 3981 c-203 -53 -268 -307 -113 -446 54 -49 101 -67 174 -67
103 -1 187 52 236 146 16 30 22 59 22 111 0 72 -12 108 -59 170 -49 66 -177
108 -260 86z"/>
<path d="M2365 3664 c-226 -40 -432 -148 -596 -313 -213 -213 -329 -491 -329
-791 0 -300 116 -578 329 -791 227 -227 519 -340 840 -326 287 13 540 124 742
326 146 145 241 312 297 520 23 86 26 114 26 271 0 157 -3 185 -26 271 -36
134 -78 230 -149 339 -137 212 -356 379 -599 458 -155 51 -371 65 -535 36z
m380 -399 c33 -9 98 -35 145 -58 70 -34 102 -58 181 -136 78 -79 102 -111 136
-181 60 -123 77 -194 77 -330 0 -136 -17 -207 -77 -330 -34 -70 -58 -102 -136
-181 -79 -78 -111 -102 -181 -136 -123 -60 -194 -77 -330 -77 -136 0 -207 17
-330 77 -70 34 -102 58 -181 136 -78 79 -102 111 -136 181 -60 123 -77 194
-77 330 0 136 17 207 77 330 33 69 59 103 132 176 121 122 238 185 397 214 70
12 228 4 303 -15z"/>
</g>
</svg>
