<?xml version="1.0" standalone="no"?>
<!DOCTYPE svg PUBLIC "-//W3C//DTD SVG 20010904//EN"
 "http://www.w3.org/TR/2001/REC-SVG-20010904/DTD/svg10.dtd">
<svg version="1.0" xmlns="http://www.w3.org/2000/svg"
 width="512.000000pt" height="512.000000pt" viewBox="0 0 512.000000 512.000000"
 preserveAspectRatio="xMidYMid meet">

<g transform="translate(0.000000,512.000000) scale(0.100000,-0.100000)"
fill="#000000" stroke="none">
<path d="M1499 4956 c-91 -32 -147 -90 -184 -188 l-18 -48 -102 0 c-91 0 -107
-3 -156 -27 -80 -41 -113 -93 -117 -189 l-4 -74 -147 0 c-80 0 -177 -5 -216
-10 -148 -22 -270 -111 -336 -245 l-34 -70 0 -1815 0 -1815 32 -68 c38 -79
114 -163 181 -200 110 -60 39 -57 1552 -57 1488 0 1439 -2 1539 49 72 37 148
117 188 199 l38 76 3 320 3 321 59 60 c76 78 1082 1496 1123 1583 25 54 31 80
35 161 3 80 1 106 -18 160 -44 131 -122 218 -250 280 -73 35 -78 36 -191 36
-114 0 -116 0 -194 -39 -46 -23 -98 -58 -125 -85 -25 -25 -125 -159 -222 -297
-97 -137 -186 -261 -197 -275 l-20 -24 -1 691 c0 664 -1 694 -20 757 -28 89
-95 177 -172 228 -96 61 -137 70 -354 76 l-191 6 -5 68 c-7 88 -40 148 -106
186 -42 25 -59 29 -160 33 l-113 5 -24 60 c-33 80 -102 147 -175 169 -45 14
-117 16 -459 16 -306 -1 -415 -4 -442 -14z m904 -483 c8 -10 19 -30 22 -45 6
-22 1 -33 -23 -58 l-30 -30 -417 0 c-346 0 -421 2 -444 15 -46 23 -54 66 -20
109 l20 26 438 0 c404 0 439 -1 454 -17z m-1483 -240 c1 -83 81 -184 159 -200
20 -5 419 -8 886 -8 l850 0 40 22 c75 40 125 118 125 194 l0 29 188 0 c166 0
192 -3 232 -21 55 -25 114 -80 143 -134 22 -40 22 -41 25 -850 l2 -810 -241
-340 c-218 -307 -329 -486 -329 -532 0 -10 -212 -13 -1161 -15 l-1161 -3 -19
-24 c-25 -30 -24 -62 2 -95 l20 -26 1141 0 1140 0 -6 -52 c-3 -29 -10 -125
-16 -213 -6 -88 -13 -179 -16 -202 l-5 -43 -1115 0 -1115 0 -24 -25 c-30 -30
-32 -64 -4 -99 l20 -26 1265 0 1265 0 25 25 c18 18 24 34 22 57 l-3 31 155 68
c85 38 156 69 157 69 2 0 3 -110 3 -244 l0 -244 -33 -63 c-20 -40 -48 -75 -75
-96 -88 -67 -2 -64 -1538 -61 l-1389 3 -54 30 c-29 16 -68 47 -87 68 -69 81
-64 -57 -64 1891 l0 1761 24 50 c29 59 49 83 96 117 57 42 86 46 283 47 l187
1 0 -37z m3696 -1013 c176 -86 229 -316 109 -474 -17 -22 -34 -35 -42 -32 -28
11 -493 347 -493 356 0 6 30 41 68 79 51 53 79 73 117 85 71 22 178 16 241
-14z m-1253 -1908 l189 -134 -33 -20 c-49 -30 -429 -191 -436 -185 -6 6 23
427 33 477 8 37 -18 51 247 -138z"/>
<path d="M1169 3710 c-95 -16 -185 -82 -234 -172 -56 -102 -43 -264 29 -352
l23 -30 -60 -39 c-112 -72 -198 -179 -253 -315 -36 -90 -40 -132 -14 -165 l22
-27 545 2 546 3 20 27 c19 25 19 32 8 82 -17 76 -80 200 -138 271 -28 34 -81
81 -124 110 l-76 51 23 30 c13 16 34 54 45 84 28 73 23 194 -9 257 -71 136
-207 207 -353 183z"/>
<path d="M2194 3540 c-26 -10 -54 -48 -54 -71 0 -9 9 -28 21 -43 l20 -26 519
0 519 0 20 26 c27 35 26 57 -3 91 l-24 28 -499 2 c-274 1 -508 -2 -519 -7z"/>
<path d="M2169 2861 c-34 -35 -36 -59 -8 -95 l20 -26 519 0 519 0 20 26 c12
15 21 33 21 40 0 26 -23 62 -47 73 -16 8 -178 11 -519 11 l-496 0 -29 -29z"/>
<path d="M683 2220 c-45 -18 -55 -72 -22 -114 l20 -26 1269 0 1269 0 20 26
c12 15 21 33 21 40 0 26 -23 62 -47 73 -30 14 -2496 15 -2530 1z"/>
</g>
</svg>
